<svg width="48" height="48" viewBox="0 0 48 48" fill="none" xmlns="http://www.w3.org/2000/svg">
<path d="M3.69875 30V29.84C5.07475 29.84 5.17075 28.704 5.17075 25.552V18.448C5.17075 15.296 5.07475 14.16 3.69875 14.16V14H5.61875C7.37875 14 8.51475 13.68 10.3708 13.68C13.7788 13.68 15.6828 15.568 15.6828 18.176C15.6828 20.368 13.8908 22.352 11.1068 22.352C9.60275 22.352 8.57875 21.328 7.90675 21.328C7.71475 21.328 7.44275 21.376 7.44275 21.744C7.44275 22.784 10.8188 23.008 12.1148 25.024C13.3788 26.992 14.8668 29.84 16.6908 29.84V30H14.2428C13.5068 30 13.0588 28.992 10.5308 25.2C8.97875 22.864 7.28275 22.8 7.28275 21.712C7.28275 21.328 7.55475 21.168 7.84275 21.168C8.78675 21.168 9.52275 22.08 11.0108 22.08C13.0108 22.08 14.3068 20.112 14.3068 18.192C14.3068 15.536 12.4348 13.904 9.45875 13.904C8.27475 13.904 7.50675 14.064 6.53075 14.416V25.552C6.53075 28.704 6.62675 29.84 8.00275 29.84V30H3.69875ZM17.6519 30V29.84C19.0279 29.84 19.1239 28.704 19.1239 25.552V18.448C19.1239 15.296 19.0279 14.16 17.6519 14.16V14H18.9319C20.6119 14 21.9879 13.68 23.3959 13.68C28.3239 13.68 30.6599 17.616 30.6599 22C30.6599 26.384 28.3239 30.32 23.3959 30.32C21.9879 30.32 20.6119 30 18.9319 30H17.6519ZM20.4839 14.352V29.648C21.4119 29.936 22.3399 30.096 23.3799 30.096C27.3319 30.096 29.2839 26.368 29.2839 22C29.2839 17.632 27.3319 13.904 23.3799 13.904C22.3399 13.904 21.4119 14.064 20.4839 14.352ZM32.585 17.84C32.585 15.616 34.617 13.68 38.313 13.68C40.281 13.68 41.641 14 42.873 14.416V16.56H42.713C42.713 16.56 41.737 13.872 38.313 13.872C35.337 13.872 33.705 15.68 33.705 17.456C33.705 21.84 43.817 20.288 43.817 25.888C43.817 28.112 41.513 30.32 37.817 30.32C35.705 30.32 33.833 29.248 32.649 28.368V26.224H32.809C32.809 26.224 34.905 30.032 38.713 30.032C41.049 30.032 42.889 28.32 42.889 26.544C42.889 21.728 32.585 23.088 32.585 17.84Z" fill="black"/>
<path d="M3.21875 32H44.777V32.8H3.21875V32Z" fill="black"/>
</svg>
